<svg xmlns="http://www.w3.org/2000/svg" width="24" height="24" viewBox="0 0 24 24" fill="none" stroke="currentColor" stroke-width="1.75" stroke-linecap="round" stroke-linejoin="round"><path d="M12 12L12 2.7M12 6L13.91 3.95M12 6L10.09 3.95M12 12L20.05 7.35M17.2 9L19.92 9.63M17.2 9L18.02 6.32M12 12L20.05 16.65M17.2 15L18.02 17.68M17.2 15L19.92 14.37M12 12L12 21.3M12 18L10.09 20.05M12 18L13.91 20.05M12 12L3.95 16.65M6.8 15L4.08 14.37M6.8 15L5.98 17.68M12 12L3.95 7.35M6.8 9L5.98 6.32M6.8 9L4.08 9.63"/></svg>
